<?xml version="1.0" encoding="utf-8"?>
<!-- Generator: Adobe Illustrator 24.0.3, SVG Export Plug-In . SVG Version: 6.00 Build 0)  -->
<svg version="1.1" xmlns="http://www.w3.org/2000/svg" xmlns:xlink="http://www.w3.org/1999/xlink" x="0px" y="0px" width="342.1px"
	 height="192px" viewBox="0 0 342.1 192" style="enable-background:new 0 0 342.1 192;" xml:space="preserve">
<style type="text/css">
	.st1{fill:#FFFFFF;}
</style>
	<g>
		<g>
			<g>
				<g>
						<radialGradient id="SVGID_2_" cx="960.2412" cy="390.1583" r="150.3379" gradientTransform="matrix(1.5337 -0.5714 0.5788 0.8605 -1624.8665 346.8448)" gradientUnits="userSpaceOnUse">
						<stop  offset="1.162660e-02" style="stop-color:#0092C2"/>
						<stop  offset="0.1935" style="stop-color:#0092C2"/>
						<stop  offset="0.6798" style="stop-color:#003475"/>
						<stop  offset="0.9607" style="stop-color:#002C48"/>
						<stop  offset="0.9949" style="stop-color:#002C48"/>
					</radialGradient>
					<path style="fill:url(#SVGID_2_);" d="M334.7,36.5c27.1,41.2-24.2,101.3-114.6,134.3c-90.4,32.9-185.7,26.2-212.9-15.1
						C-19.9,114.5,31.4,54.4,121.9,21.4C212.3-11.5,307.6-4.7,334.7,36.5z"/>
				</g>
			</g>
		</g>
		<path class="st1" d="M101.1,32h6.6l-8.1,31.6H93L101.1,32z"/>
		<path class="st1" d="M109.7,57.2c0.3-4.4,6.2-2.6,7.9-4.2h0c-0.4,2.1-1.5,6.5-5.5,6.5C110.9,59.6,109.6,59,109.7,57.2z
			 M112.7,47.7c0.4-2.2,1.8-2.9,3.9-2.9c2,0,2.7,0.9,2.6,2.2c-0.2,3-3.3,2.8-5.6,3c-5.2,0.4-10.1,1.6-10.5,7.8
			c-0.3,4.7,2.3,6.5,6.1,6.5c2.9,0,4.9-0.8,6.3-2.9h0.1c-0.1,1.2-0.1,1.1,0,2.2h6.5c-0.1-0.4-0.2-1-0.1-1.8c0.1-1.2,0.5-2.7,0.9-4.3
			c0.6-2.1,2.6-8.5,2.8-11.5c0.3-4.5-3.2-6-8.8-6c-4.9,0-8.9,1.8-10.4,7.7H112.7z"/>
		<path class="st1" d="M147.2,49c0.1-1.1-0.1-2-0.6-2.6c-0.5-0.6-1.1-0.8-2.1-0.9c-3.9-0.2-5.4,4.5-5.7,8c-0.2,3.3,0.7,5.3,3,5.3
			c2.1,0,3.5-1.6,4.1-3.9h6.4c-1.7,6.5-5.9,9.4-11.2,9.4c-5.6,0-9.4-3.2-8.9-10c0.6-8.1,5.7-14.3,13-14.3c5.1,0,8.8,2.9,8.4,9H147.2
			z"/>
		<path class="st1" d="M160,32h6.6l-3,11.3l0.1,0.1c1-1.5,3.6-3.4,7.1-3.4c3.6,0,5.6,2.5,5.3,6.5c-0.1,1.5-0.7,3.8-1.1,5l-3.3,12.2
			h-6.6l3.2-12.2c0.3-1.1,0.5-2,0.6-2.9c0.1-1.8-0.8-2.8-2.2-2.8c-4.1,0-4.9,4.4-5.8,8.1l-2.5,9.7h-6.6L160,32z"/>
		<path class="st1" d="M182,57.2c0.3-4.4,6.2-2.6,7.9-4.2h0c-0.4,2.1-1.5,6.5-5.5,6.5C183.2,59.6,181.9,59,182,57.2z M185,47.7
			c0.4-2.2,1.7-2.9,3.9-2.9c2,0,2.7,0.9,2.6,2.2c-0.2,3-3.3,2.8-5.6,3c-5.2,0.4-10.1,1.6-10.5,7.8c-0.3,4.7,2.3,6.5,6.1,6.5
			c2.9,0,4.9-0.8,6.3-2.9h0.1c-0.1,1.2-0.1,1.1,0,2.2h6.5c-0.1-0.4-0.2-1-0.1-1.8c0.1-1.2,0.5-2.7,0.9-4.3c0.6-2.1,2.6-8.5,2.8-11.5
			c0.3-4.5-3.2-6-8.8-6c-4.9,0-8.9,1.8-10.4,7.7H185z"/>
		<path class="st1" d="M198.4,38.5l6.1-6.4h5.7l2.8,6.4h-4.9l-1.5-3.6l-3.2,3.6H198.4z M202,40.6h6.6l-5.9,22.9h-6.6L202,40.6z"/>
		<path class="st1" d="M211.3,40.6h6.6l-0.7,2.8h0.1c1.1-1.5,3.7-3.4,7.2-3.4c3.6,0,5.6,2.5,5.3,6.5c-0.1,1.5-0.7,3.8-1.1,5
			l-3.3,12.2h-6.6l3.2-12.2c0.3-1.1,0.5-2,0.6-2.9c0.1-1.8-0.8-2.8-2.2-2.8c-4.1,0-4.9,4.4-5.8,8.1l-2.5,9.7h-6.6L211.3,40.6z"/>
		<path class="st1" d="M237.3,49.7c0.9-2.9,2.5-4.7,5.2-4.7c2.2,0,3.1,2.1,2.7,4.7H237.3z M251.1,53.9c0.2-1.3,0.4-2.6,0.5-3.9
			c0.5-6.6-3.3-10-8.5-10c-7.3,0-12.4,6.1-13,14.3c-0.5,6.8,3.3,10,8.9,10c4.9,0,9.1-2.1,11.1-7.6h-6.4c-0.6,1.6-1.8,2.5-4,2.5
			c-2.2,0-3.3-1.3-3.3-3.7c0.1-0.8,0.1-1.1,0.2-1.5H251.1z"/>
		<g>
			<path class="st1" d="M34.1,84.6h17.3l-1.8,7h0.2c4-5,9.3-8.3,15.3-8.3c6.1,0,11.3,2.2,12,8.8c4.3-5.5,9.7-8.8,15.9-8.8
				c9.1,0,14.6,4.8,13.8,15.8c-0.2,2.5-1.2,6.1-1.7,8.4l-7.9,30.3H79.3l6.6-25.4c0.3-1,1.5-6.2,1.6-7.8c0.2-3.4-1.3-5.1-4.2-5.1
				c-3.5,0-6.2,2.3-7.2,6.2l-8.4,32.1H49.9l7.5-28.5c0.4-1.3,1-3.5,1.1-4.9c0.2-3.4-1.3-4.9-4.1-4.9c-4.4,0-6.9,3.3-8,7.9l-8,30.4
				H20.5L34.1,84.6z"/>
			<path class="st1" d="M189.9,84.6h9.6l-3.4,12.5h-9.4l-4.4,17.1c-0.5,1.7-1.1,3.6-1.2,5.3c-0.1,1.7,0.6,3.2,3.4,3.2
				c2.9,0,4.4-0.2,5.9-0.3l-3.8,14.6c-3.2,0.6-6.5,1.1-9.7,1.3c-3.8,0-7.8,0-11.1-2.2c-2.9-1.9-4.4-6.1-4.1-10
				c0.2-2.9,0.9-4.8,1.5-7.3l5.7-21.8h-7.9l3.4-12.5h7.7l4.3-16.1h17.8L189.9,84.6z"/>
			<path class="st1" d="M264.5,115.7c0.4-5.5,3.8-17.7,10.9-17.7c4.8,0,6,3.6,5.5,9.9c-0.3,4.6-3.7,16.4-10.7,16.4
				C265.2,124.4,264.2,120,264.5,115.7z M246.8,114.2c-1.3,17.8,8.6,24.9,21.5,24.9c21.5,0,29.5-18.9,30.5-32.6
				c1.2-16.1-7.3-23.2-21-23.2C258.8,83.3,248.1,97.2,246.8,114.2z"/>
			<path class="st1" d="M224,83.3c-11.6,0-28.5,8-30.3,32.4c-0.9,12.9,5,23.4,21.5,23.4c20.1,0,24.6-13.2,26-16.8h-17.1
				c-1,1.8-3.4,3.8-7.3,3.8c-5.6,0-6.9-4.7-6.5-10.4h33.3c1-3.3,1.4-6.3,1.6-9.2C246.3,89.8,234.3,83.3,224,83.3z M228.4,105.2
				h-15.8c1.8-5.6,5.1-8.9,9.9-8.9c4.5,0,6.5,3.2,6.2,7.2C228.7,104,228.6,104.7,228.4,105.2z"/>
			<g>
				<path class="st1" d="M137.9,83.3c-11.6,0-28.5,8-30.3,32.4c-0.9,12.9,5,23.4,21.5,23.4c20.1,0,24.6-13.2,26-16.8h-17.1
					c-1,1.8-3.4,3.8-7.3,3.8c-5.6,0-6.9-4.7-6.5-10.4h33.3c1-3.3,1.4-6.3,1.6-9.2C160.3,89.8,148.3,83.3,137.9,83.3z M142.4,105.2
					h-15.8c1.8-5.6,5.1-8.9,9.9-8.9c4.5,0,6.5,3.2,6.2,7.2C142.6,104,142.5,104.7,142.4,105.2z"/>
			</g>
			<polygon class="st1" points="228.8,78.8 243.9,68.5 226.6,68.5 219,78.8"/>
			<polygon class="st1" points="142.7,78.8 157.8,68.5 140.5,68.5 133,78.8"/>
		</g>
		<path style="fill:#F8BA06" d="M342.1,36c0-19.9-16.1-36-36-36c-19.9,0-36,16.1-36,36c0,19.9,16.1,36,36,36C326,72,342.1,55.9,342.1,36z"/>
	</g>
</svg>